<svg width="24" height="24" viewBox="0 0 24 24" fill="none" xmlns="http://www.w3.org/2000/svg">
<path fill-rule="evenodd" clip-rule="evenodd" d="M10.3612 3.76137C11.9906 3.43726 13.6796 3.6036 15.2145 4.23938C16.7494 4.87516 18.0613 5.9518 18.9843 7.33318C19.9073 8.71455 20.3999 10.3386 20.3999 12C20.3999 13.6613 19.9073 15.2854 18.9843 16.6668C18.0613 18.0481 16.7494 19.1248 15.2145 19.7606C13.6796 20.3963 11.9906 20.5627 10.3612 20.2386C8.73174 19.9144 7.23501 19.1144 6.06024 17.9397C5.82593 17.7053 5.44603 17.7053 5.21172 17.9397C4.9774 18.174 4.9774 18.5539 5.21172 18.7882C6.5543 20.1308 8.26486 21.0451 10.1271 21.4155C11.9893 21.7859 13.9195 21.5958 15.6737 20.8692C17.4279 20.1426 18.9272 18.9122 19.9821 17.3334C21.0369 15.7547 21.5999 13.8987 21.5999 12C21.5999 10.1013 21.0369 8.2452 19.9821 6.66649C18.9272 5.08778 17.4279 3.85732 15.6737 3.13072C13.9195 2.40412 11.9893 2.21401 10.1271 2.58443C8.26486 2.95485 6.5543 3.86916 5.21172 5.21174C4.9774 5.44606 4.9774 5.82596 5.21172 6.06027C5.44603 6.29459 5.82593 6.29459 6.06024 6.06027C7.23501 4.88551 8.73174 4.08549 10.3612 3.76137ZM1.49999 8.39999C1.16862 8.39999 0.899994 8.66862 0.899994 8.99999C0.899994 9.33136 1.16862 9.59999 1.49999 9.59999H4.99999C5.33136 9.59999 5.59999 9.33136 5.59999 8.99999C5.59999 8.66862 5.33136 8.39999 4.99999 8.39999H1.49999ZM3.49999 14.4C3.16862 14.4 2.89999 14.6686 2.89999 15C2.89999 15.3314 3.16862 15.6 3.49999 15.6H4.99999C5.33136 15.6 5.59999 15.3314 5.59999 15C5.59999 14.6686 5.33136 14.4 4.99999 14.4H3.49999ZM1.89999 12C1.89999 11.6686 2.16862 11.4 2.49999 11.4H4.99999C5.33136 11.4 5.59999 11.6686 5.59999 12C5.59999 12.3314 5.33136 12.6 4.99999 12.6H2.49999C2.16862 12.6 1.89999 12.3314 1.89999 12ZM9.57573 7.57573C9.68825 7.46321 9.84086 7.39999 9.99999 7.39999L13 7.39999C14.4359 7.39999 15.6 8.56405 15.6 9.99999C15.6 11.1817 14.8116 12.1793 13.7321 12.4955C13.984 12.7556 14.1988 13.0559 14.3658 13.39L15.5366 15.7317C15.6848 16.0281 15.5647 16.3885 15.2683 16.5366C14.9719 16.6848 14.6115 16.5647 14.4633 16.2683L13.2925 13.9267C12.886 13.1136 12.0549 12.6 11.1459 12.6H11H10.6V16C10.6 16.3314 10.3314 16.6 9.99999 16.6C9.66862 16.6 9.39999 16.3314 9.39999 16V12L9.39999 7.99999C9.39999 7.84086 9.46321 7.68825 9.57573 7.57573ZM10.6 11.4L10.6 8.59999L13 8.59999C13.7732 8.59999 14.4 9.2268 14.4 9.99999C14.4 10.7732 13.7732 11.4 13 11.4H11.1459H11H10.6Z" fill="#D82333"/>
</svg>
