<svg width="24" height="24" viewBox="0 0 24 24" fill="none" xmlns="http://www.w3.org/2000/svg">
<path fill-rule="evenodd" clip-rule="evenodd" d="M13.808 13.541C15.8497 11.4375 15.8337 8.07382 13.7598 5.99999L13.7493 5.98943C13.7491 5.98928 13.749 5.98914 13.7488 5.98899C11.6488 3.88999 8.24883 3.88999 6.15883 5.98999C4.05983 8.08999 4.05983 11.49 6.15983 13.59C8.21659 15.637 11.5204 15.6791 13.6285 13.7164C13.6516 13.6822 13.6787 13.6498 13.7098 13.62C13.7401 13.5897 13.7731 13.5633 13.808 13.541ZM14.0981 14.8635L19.5698 20.41C19.7998 20.64 20.1798 20.64 20.4098 20.41C20.6398 20.17 20.6398 19.79 20.4098 19.56L14.9495 14.025C17.127 11.4462 17.0092 7.58674 14.5962 5.14644C14.5937 5.14394 14.5913 5.14146 14.5888 5.13899C14.5867 5.1369 14.5846 5.13481 14.5826 5.13272C14.5813 5.13148 14.5801 5.13023 14.5788 5.12899C14.5773 5.12748 14.5758 5.12599 14.5743 5.12451C12.0032 2.569 7.85399 2.57382 5.28883 5.13899C2.71883 7.69899 2.71883 11.859 5.28883 14.429C7.69472 16.8349 11.5138 16.9797 14.0981 14.8635Z" fill="#3C4044"/>
</svg>
