<svg width="24" height="24" viewBox="0 0 24 24" fill="none" xmlns="http://www.w3.org/2000/svg">
<path fill-rule="evenodd" clip-rule="evenodd" d="M20.4532 6.3712C20.7494 7.69911 20.3712 9.08948 19.4 10.07C18.34 11.12 16.8 11.48 15.38 11.03C15.16 10.96 14.93 11.02 14.77 11.17L6.42302 19.51C5.82302 20.1 4.86302 20.13 4.27302 19.58C3.63302 18.99 3.62302 17.99 4.22302 17.38L12.603 8.98999C12.753 8.82999 12.813 8.6 12.743 8.37999C12.293 6.95999 12.653 5.41999 13.703 4.35999C14.6404 3.41358 15.9678 3.02774 17.2531 3.26838L15.023 5.48999C14.783 5.71999 14.783 6.09999 15.023 6.32999L17.343 8.64999C17.573 8.87999 17.953 8.87999 18.183 8.64999L20.4532 6.3712ZM20.38 6.08999C20.3806 6.09206 20.3812 6.09412 20.3818 6.09618C20.3812 6.09413 20.3806 6.09206 20.38 6.08999ZM21.17 5.24999L21.34 5.41999L21.207 5.30599C21.317 5.406 21.387 5.526 21.427 5.65599C21.967 7.476 21.507 9.456 20.147 10.826C19.0363 11.9449 17.5048 12.459 15.9897 12.3097L20.25 16.57C21.31 17.63 21.31 19.35 20.25 20.42C19.19 21.48 17.47 21.48 16.41 20.42L11.7465 15.7565L7.20002 20.303C6.15002 21.353 4.46002 21.413 3.39002 20.413C2.26002 19.363 2.23002 17.583 3.32002 16.503L11.4694 8.36042C11.0657 6.63384 11.5527 4.79831 12.845 3.51999C14.215 2.14999 16.185 1.68999 18.025 2.23999C18.155 2.27999 18.275 2.33999 18.365 2.43999L18.535 2.60999C18.855 2.92999 18.855 3.42999 18.545 3.74999L16.3296 5.9696L17.8108 7.45079L20.03 5.23999C20.34 4.92999 20.85 4.92999 21.17 5.24999ZM12.5915 14.9115L17.24 19.56C17.84 20.15 18.8 20.15 19.4 19.56C19.99 18.96 19.99 18 19.4 17.41L14.7465 12.7565L12.5915 14.9115Z" fill="#D82333"/>
<path fill-rule="evenodd" clip-rule="evenodd" d="M3.02999 6.49999L2.35999 4.47999L2.31899 4.44099C2.18899 4.05099 2.28899 3.61099 2.58899 3.32099L3.15899 2.76099C3.44899 2.47099 3.88899 2.36099 4.28899 2.50099L6.31899 3.18099C6.96899 3.39099 7.41899 4.01099 7.41899 4.70099L7.41899 6.739L10.75 10.07C10.98 10.3 10.98 10.68 10.75 10.92C10.52 11.15 10.14 11.15 9.90999 10.92L6.57997 7.58999L4.53999 7.58999C3.84999 7.58999 3.23999 7.14999 3.02999 6.49999ZM6.19999 6.35899V4.68999C6.19999 4.51999 6.08999 4.36999 5.92999 4.31999L3.97813 3.67259L3.49771 4.16159L4.13999 6.07899C4.18999 6.24899 4.33999 6.35899 4.51999 6.35899H6.19999ZM3.49163 4.14344C3.49491 4.12816 3.49436 4.11311 3.48999 4.09999L3.45999 4.04899L3.49163 4.14344ZM3.46156 4.19838C3.46105 4.19892 3.46052 4.19946 3.45999 4.19999L3.46156 4.19838Z" fill="#D82333"/>
</svg>
