<svg width="24" height="24" viewBox="0 0 24 24" fill="none" xmlns="http://www.w3.org/2000/svg">
<path fill-rule="evenodd" clip-rule="evenodd" d="M9.01695 2.89675C9.07398 3.22318 8.85558 3.53403 8.52915 3.59105C7.55671 3.76093 6.62184 4.10088 5.76742 4.59532C5.48061 4.76129 5.11356 4.66333 4.94759 4.37652C4.78161 4.08971 4.87957 3.72266 5.16639 3.55669C6.14286 2.99162 7.21129 2.6031 8.32265 2.40895C8.64908 2.35193 8.95993 2.57032 9.01695 2.89675ZM10.9829 2.89675C11.0399 2.57032 11.3507 2.35193 11.6772 2.40895C12.7885 2.6031 13.8569 2.99162 14.8334 3.55669C15.1202 3.72266 15.2182 4.08971 15.0522 4.37652C14.8862 4.66333 14.5192 4.76129 14.2324 4.59532C13.378 4.10088 12.4431 3.76093 11.4707 3.59105C11.1442 3.53403 10.9258 3.22318 10.9829 2.89675ZM20.6975 7.30308C19.7609 6.36574 18.241 6.36548 17.3032 7.30327C16.3655 8.24095 16.3655 9.76005 17.3032 10.6977C18.2409 11.6354 19.76 11.6354 20.6976 10.6977C21.6353 9.76005 21.6351 8.24077 20.6975 7.30308ZM21.5462 6.45474C20.1407 5.04826 17.8608 5.04858 16.4546 6.45474C15.0483 7.86105 15.0483 10.14 16.4546 11.5463C17.7164 12.808 19.6805 12.9377 21.0866 11.9354L22.5765 13.4261C22.8108 13.6605 23.1907 13.6606 23.4251 13.4264C23.6594 13.1921 23.6595 12.8122 23.4253 12.5778L21.9352 11.0869C22.9376 9.68078 22.808 7.71653 21.5462 6.45474ZM3.43676 5.63969C3.69098 5.85224 3.72476 6.23064 3.51221 6.48486C2.8786 7.2427 2.3824 8.10551 2.04605 9.0343C1.93322 9.34587 1.58917 9.50698 1.2776 9.39415C0.966034 9.28132 0.804925 8.93727 0.917755 8.6257C1.30175 7.56535 1.86823 6.58033 2.59159 5.71515C2.80414 5.46092 3.18254 5.42714 3.43676 5.63969ZM9.8399 8.681C9.83985 8.68107 9.83995 8.68093 9.8399 8.681L7.92374 11.2449C7.92371 11.2449 7.92377 11.2448 7.92374 11.2449C7.5898 11.6924 7.40869 12.2356 7.40739 12.7939C7.40403 14.2294 8.56461 15.3959 9.9999 15.4C10.5578 15.3984 11.1004 15.2174 11.5476 14.8837C12.6983 14.0248 12.9349 12.3956 12.0761 11.2449L10.1599 8.681C10.1599 8.68094 10.1599 8.68105 10.1599 8.681C10.1486 8.66592 10.135 8.65234 10.1199 8.641C10.0316 8.57478 9.90621 8.5928 9.8399 8.681ZM8.8799 7.961C9.34382 7.34244 10.2213 7.21708 10.8399 7.681C10.946 7.76058 11.0403 7.85486 11.1199 7.961L11.1205 7.96181L13.0375 10.5268C14.2928 12.2087 13.9472 14.59 12.2653 15.8453C11.6113 16.3335 10.8174 16.5981 10.0013 16.6H9.9985C7.89982 16.5951 6.20249 14.8898 6.20739 12.7911C6.2093 11.975 6.47391 11.1812 6.96206 10.5271L8.8799 7.961ZM0.999364 11.4C1.33052 11.3997 1.59931 11.6678 1.5999 11.9989C1.60822 16.6381 5.37576 20.392 10.015 20.3836C12.9637 20.3783 15.6677 18.8304 17.1761 16.35H15.9999C15.6685 16.35 15.3999 16.0814 15.3999 15.75C15.3999 15.4186 15.6685 15.15 15.9999 15.15H18.9999C19.3313 15.15 19.5999 15.4186 19.5999 15.75L19.5999 18.75C19.5999 19.0814 19.3313 19.35 18.9999 19.35C18.6685 19.35 18.3999 19.0814 18.3999 18.75L18.3999 16.6314C16.7424 19.6287 13.598 21.5309 10.1441 21.5826C10.0979 21.594 10.0496 21.6 9.9999 21.6C4.69797 21.6 0.399903 17.3019 0.399902 12C0.399902 11.6688 0.668204 11.4003 0.999364 11.4Z" fill="#3C4044"/>
</svg>
