<svg width="32" height="32" viewBox="0 0 32 32" fill="none" xmlns="http://www.w3.org/2000/svg">
<path d="M9.87867 18.9947L7.832 9.33337H24.6667C25.5347 9.33337 26.1707 10.148 25.96 10.9907L24.1627 18.18C23.8893 19.272 22.9613 20.0747 21.8413 20.1867L12.7533 21.096C11.3987 21.2307 10.16 20.3254 9.87867 18.9947V18.9947Z" stroke="white" stroke-width="2" stroke-linecap="round" stroke-linejoin="round"/>
<path d="M7.83199 9.33337L6.96532 5.33337H4.66666" stroke="white" stroke-width="2" stroke-linecap="square" stroke-linejoin="round"/>
<path d="M21.992 24C20.888 24 19.9921 24.896 20.0001 26C20.0001 27.104 20.896 28 22 28C23.104 28 24 27.104 24 26C24 24.896 23.104 24 21.992 24Z" fill="white"/>
<path d="M12.6587 24C11.5547 24 10.6587 24.896 10.6667 26C10.6667 27.104 11.5627 28 12.6667 28C13.7707 28 14.6667 27.104 14.6667 26C14.6667 24.896 13.7707 24 12.6587 24Z" fill="white"/>
</svg>
