<svg width="24" height="24" viewBox="0 0 24 24" fill="none" xmlns="http://www.w3.org/2000/svg">
<path fill-rule="evenodd" clip-rule="evenodd" d="M4.99999 7.39L6.38 7.39V3.98C6.38 3.09 7.09 2.38 7.98 2.38L15.98 2.38C16.86 2.38 17.58 3.09 17.58 3.98V7.39H19C20.43 7.39 21.6 8.55 21.6 9.99V10.99C21.6 11.33 21.33 11.6 21 11.6C20.66 11.6 20.4 11.33 20.4 11V10C20.4 9.22 19.77 8.6 19 8.6L4.99999 8.6C4.21999 8.6 3.59999 9.22 3.59999 10L3.59999 15C3.59999 15.77 4.21999 16.4 4.99999 16.4H6.37V13.98C6.37 13.64 6.64 13.38 6.98 13.38L10.98 13.38C11.32 13.38 11.59 13.65 11.59 13.99C11.59 14.33 11.32 14.6 10.99 14.6L7.6 14.6V20C7.6 20.22 7.77 20.4 8 20.4H11L10.96 20.36C11.3 20.36 11.57 20.63 11.57 20.97C11.57 21.31 11.3 21.58 10.97 21.58H7.97C7.08 21.58 6.37 20.86 6.37 19.98V17.59H4.99999C3.55999 17.59 2.39999 16.42 2.39999 14.99L2.39999 9.99C2.39999 8.55 3.55999 7.39 4.99999 7.39ZM16.38 7.39L7.6 7.39L7.6 4C7.6 3.77 7.77 3.6 7.99 3.6L15.99 3.6C16.21 3.6 16.38 3.77 16.38 3.99V7.39ZM8 11.6H7L6.98 11.58C6.64 11.58 6.38 11.31 6.38 10.98C6.38 10.64 6.65 10.38 6.99 10.38H7.99C8.33 10.38 8.60001 10.65 8.60001 10.99C8.60001 11.33 8.33 11.6 8 11.6ZM14.7584 20.2682C14.741 20.2443 14.7215 20.2215 14.7 20.2L14.7399 20.2498L14.735 20.245C13.21 18.7146 13.2117 16.2483 14.74 14.73C16.26 13.2 18.73 13.2 20.25 14.73C21.77 16.25 21.77 18.72 20.25 20.24C18.7295 21.7506 16.2806 21.76 14.7584 20.2682ZM13.8088 20.9981C13.8296 21.027 13.8533 21.0544 13.88 21.08C15.87 23.07 19.1 23.07 21.09 21.07C23.08 19.07 23.08 15.84 21.09 13.85C19.09 11.85 15.86 11.85 13.87 13.84C11.8873 15.8128 11.8701 19.0042 13.8088 20.9981ZM18.1 17.182V15.682C18.1 15.342 17.83 15.072 17.49 15.072C17.15 15.072 16.88 15.332 16.88 15.672V17.172C16.88 17.502 17.14 17.772 17.48 17.772C17.81 17.772 18.08 17.502 18.08 17.162L18.1 17.182ZM17.8151 18.6172C17.7121 18.5373 17.5823 18.49 17.44 18.49L17.48 18.53C17.2709 18.53 17.0883 18.6284 16.9786 18.7832C16.8737 18.902 16.81 19.0578 16.81 19.23C16.81 19.6 17.11 19.91 17.49 19.91C17.86 19.91 18.17 19.6 18.17 19.22C18.17 18.9615 18.0265 18.7353 17.8151 18.6172ZM17.45 19.71C17.4565 19.71 17.463 19.7099 17.4694 19.7096C17.463 19.7099 17.4565 19.71 17.45 19.71Z" fill="#D82333"/>
</svg>
