<svg width="24" height="24" viewBox="0 0 24 24" fill="none" xmlns="http://www.w3.org/2000/svg">
<path fill-rule="evenodd" clip-rule="evenodd" d="M10 4.6L14 4.6C14.22 4.6 14.39 4.76999 14.39 4.99V6.74137C14.3641 6.80862 14.35 6.88222 14.35 6.96C14.35 7.03682 14.3641 7.11039 14.39 7.17806L14.39 14.38L2.6 14.38L2.6 12.99C2.6 12.65 2.33 12.38 1.99 12.38C1.65 12.38 1.38 12.64 1.38 12.98L1.38 14.98L1.38 18.39C1.38 19.27 2.09 19.99 2.98 19.99H4.43877C4.53744 20.3302 4.72096 20.651 4.989 20.919C5.839 21.769 7.219 21.769 8.069 20.919C8.3274 20.6576 8.50725 20.3481 8.60854 20.02H15.4514C15.5533 20.3494 15.7358 20.6596 15.999 20.92C16.849 21.77 18.229 21.77 19.079 20.92C19.3669 20.6287 19.5573 20.2778 19.6502 19.908H20.973C21.853 19.908 22.573 19.188 22.573 18.308L22.573 12.36C22.573 12.03 22.503 11.7 22.383 11.39L21.7819 9.88917C21.7672 9.7983 21.7327 9.71453 21.683 9.64229L20.773 7.37C20.523 6.76 19.933 6.36 19.283 6.36H15.58V4.97C15.58 4.08 14.86 3.37 13.98 3.37L9.98 3.37C9.64 3.37 9.37 3.63 9.37 3.97C9.37 4.3 9.63 4.57 9.97 4.57L10 4.6ZM19.693 7.85L20.3035 9.38L17.98 9.38C17.64 9.38 17.37 9.64 17.37 9.98V13.98C17.37 14.31 17.63 14.58 17.97 14.58H21.393L21.393 18.318C21.393 18.538 21.213 18.708 20.993 18.708H19.6139C19.5118 18.3866 19.3335 18.0845 19.079 17.83C19.0512 17.8022 19.0215 17.7776 18.9904 17.7563C18.1265 16.9912 16.8179 17.0221 16 17.84C15.7153 18.1214 15.5248 18.4609 15.4286 18.82H8.63651C8.54713 18.4751 8.37216 18.1481 8.1116 17.8728C8.10433 17.8647 8.0968 17.8568 8.089 17.849L8.07895 17.839L8.069 17.829C8.0614 17.8214 8.05365 17.814 8.04577 17.8069C7.18336 16.9892 5.8349 17.0031 4.999 17.839C4.71667 18.118 4.52702 18.4542 4.42971 18.81H3C2.77 18.81 2.6 18.63 2.6 18.41V15.58L14.98 15.58C15.31 15.58 15.58 15.31 15.58 14.97L15.58 7.6H19.323C19.483 7.6 19.633 7.69 19.693 7.85ZM21.393 12.37V13.4H18.6V10.6L20.7903 10.6L21.293 11.86C21.353 12.02 21.393 12.2 21.393 12.37ZM16.5819 19.511C16.5872 19.4782 16.59 19.4445 16.59 19.41C16.59 19.3742 16.587 19.3392 16.5813 19.3052C16.6031 19.0887 16.6963 18.878 16.86 18.71C17.24 18.32 17.86 18.32 18.25 18.7C18.2556 18.7056 18.2612 18.711 18.267 18.7163L18.27 18.72C18.4233 18.8733 18.5148 19.0657 18.5444 19.2663C18.5435 19.28 18.543 19.2939 18.543 19.308C18.543 19.3493 18.5471 19.3896 18.5548 19.4286C18.5506 19.6741 18.4556 19.9195 18.27 20.11C17.88 20.49 17.26 20.49 16.87 20.11C16.701 19.941 16.6053 19.7289 16.5819 19.511ZM5.57694 19.4423C5.57896 19.4219 5.58 19.4011 5.58 19.38C5.58 19.3656 5.57951 19.3513 5.57856 19.3372C5.59415 19.1095 5.68827 18.8862 5.86 18.71C6.24 18.32 6.86 18.32 7.25 18.7L7.25061 18.7006L7.27 18.72C7.65 19.1 7.65 19.72 7.27 20.11C6.88 20.49 6.26 20.49 5.87 20.11C5.68333 19.9233 5.58601 19.684 5.57694 19.4423ZM7 4.6L2 4.6L1.98 4.58C1.64 4.58 1.38 4.31 1.38 3.98C1.38 3.64 1.65 3.38 1.99 3.38L6.99 3.38C7.33 3.38 7.6 3.65 7.6 3.99C7.6 4.33 7.33 4.6 7 4.6ZM2 7.6H5C5.33 7.6 5.6 7.33 5.6 6.99C5.6 6.65 5.33 6.38 4.99 6.38H1.99C1.65 6.38 1.38 6.64 1.38 6.98C1.38 7.31 1.64 7.58 1.98 7.58L2 7.6ZM2 9.4H3L2.98 9.38C3.32 9.38 3.59 9.65 3.59 9.99C3.59 10.33 3.32 10.6 2.99 10.6H1.99C1.65 10.6 1.39 10.33 1.39 10C1.39 9.66 1.66 9.4 2 9.4Z" fill="#D82333"/>
</svg>
