<svg width="20" height="21" viewBox="0 0 20 21" fill="none" xmlns="http://www.w3.org/2000/svg">
<path fill-rule="evenodd" clip-rule="evenodd" d="M1.99224 10.4626C2.04251 6.14489 5.47662 2.67259 9.77886 2.56143C9.9697 2.54433 10.1623 2.5516 10.3518 2.58325C14.5743 2.76904 17.9365 6.20623 17.991 10.4701C17.9969 10.5014 18 10.5338 18 10.567C18 10.5999 17.997 10.6319 17.9912 10.663C17.9444 15.0474 14.3874 18.5753 9.99167 18.5753C9.95319 18.5753 9.91594 18.5712 9.8803 18.5633C9.84545 18.5616 9.81064 18.5592 9.7759 18.5559C5.4749 18.4429 2.04226 14.9632 1.99223 10.6541C1.98639 10.6232 1.98334 10.5913 1.98334 10.5587C1.98334 10.5257 1.98639 10.4936 1.99224 10.4626ZM3.01742 11.0754C3.22276 14.0123 5.22376 16.4411 7.94014 17.2701C6.83937 15.3716 6.24921 13.2322 6.16967 11.0754H3.01742ZM6.16998 10.0587H3.01854C3.22973 7.12539 5.22594 4.70888 7.93476 3.88157C6.83886 5.77532 6.2506 7.90821 6.16998 10.0587ZM7.14699 11.0754C7.23029 13.1175 7.80601 15.1412 8.87496 16.9253C9.13351 17.3577 9.56453 17.5701 9.99366 17.5627L9.98335 17.542C10.0248 17.542 10.065 17.5468 10.1034 17.5559C10.48 17.5163 10.8435 17.3061 11.075 16.9253C12.1441 15.141 12.7198 13.117 12.803 11.0754H7.14699ZM12.8037 10.0587H7.14618C7.22631 8.01369 7.80007 5.98693 8.86663 4.20035L8.89163 4.20868C9.10976 3.84037 9.45063 3.6301 9.80891 3.57787C9.8724 3.5762 9.9361 3.57535 10 3.57535L10.003 3.57534C10.0557 3.57536 10.1084 3.57596 10.1609 3.57714C10.521 3.6281 10.8641 3.83861 11.0833 4.20868C12.1496 5.99104 12.7234 8.01525 12.8037 10.0587ZM13.8143 11.0754C13.7334 13.2328 13.143 15.3732 12.0438 17.274C14.7645 16.4489 16.7764 14.017 16.9825 11.0754H13.8143ZM16.9814 10.0587H13.8147C13.7358 7.90777 13.1502 5.77468 12.0573 3.88006C14.7663 4.70594 16.7696 7.12361 16.9814 10.0587Z" fill="#3C4044"/>
</svg>
