<svg width="186" height="86" viewBox="0 0 186 86" fill="none" xmlns="http://www.w3.org/2000/svg">
<path fill-rule="evenodd" clip-rule="evenodd" d="M176 0C182.34 0 186.769 5.15579 185.516 11.4544L176.708 55.7322C175.455 62.0308 169.398 67 163.057 67H152.657C149.406 67.0729 144.712 68.0133 134.965 74.986C123.23 83.3793 117.88 82.7578 117.88 82.7578C121.705 72.4992 117.41 67 109.179 66.9931L11 67C4.65961 67 -0.0981117 62.0308 1.15517 55.7322L9.9632 11.4544C11.2158 5.15579 17.0677 0 23.408 0H176Z" fill="#D82333"/>
<path d="M5.92999 83H8.45999C9.69999 83 10.74 82.32 10.74 80.99C10.74 80.2 10.32 79.5 9.56999 79.28V79.26C10.11 78.98 10.45 78.43 10.45 77.74C10.45 76.6 9.59999 75.94 8.39999 75.94H5.92999V83ZM6.91999 78.91V76.8H8.38999C9.05999 76.8 9.43999 77.22 9.43999 77.84C9.43999 78.46 9.03999 78.91 8.39999 78.91H6.91999ZM6.91999 82.14V79.73H8.50999C9.24999 79.73 9.71999 80.22 9.71999 80.93C9.71999 81.66 9.26999 82.14 8.50999 82.14H6.91999Z" fill="#3C4044"/>
<path d="M12.1702 83H13.1602V75.94H12.1702V83Z" fill="#3C4044"/>
<path d="M15.0316 83H16.0216V80.19H17.5316L19.0216 83H20.1416L18.6416 80.26C18.5216 80.04 18.4416 79.94 18.4416 79.94V79.92C19.2116 79.66 19.7016 78.88 19.7016 77.98C19.7016 77.08 19.2616 76.43 18.5816 76.13C18.2916 76 17.9516 75.94 17.2716 75.94H15.0316V83ZM16.0216 79.33V76.8H17.1916C17.6416 76.8 17.8616 76.84 18.0416 76.92C18.4816 77.11 18.7016 77.52 18.7016 78.03C18.7016 78.81 18.2116 79.33 17.4416 79.33H16.0216Z" fill="#3C4044"/>
<path d="M20.822 79.42C20.822 81.5 22.352 83.12 24.452 83.12C26.552 83.12 28.072 81.5 28.072 79.42C28.072 77.39 26.552 75.82 24.452 75.82C22.352 75.82 20.822 77.39 20.822 79.42ZM21.842 79.42C21.842 77.89 22.942 76.72 24.452 76.72C25.952 76.72 27.052 77.89 27.052 79.42C27.052 81 25.952 82.21 24.452 82.21C22.942 82.21 21.842 81 21.842 79.42Z" fill="#3C4044"/>
<path d="M28.8444 80.97C28.8444 82.49 29.9044 83.12 30.9344 83.12C31.9644 83.12 33.0244 82.5 33.0244 80.97V75.94H30.2644V76.8H32.0444V80.96C32.0444 81.88 31.5044 82.21 30.9344 82.21C30.1444 82.21 29.8244 81.6 29.8244 80.92V80.62H28.8444V80.97Z" fill="#3C4044"/>
<path d="M34.3065 82.19C34.9165 82.79 35.7765 83.12 36.6265 83.12C38.0665 83.12 38.8765 82.22 38.8765 81.11C38.8765 78.84 35.4765 79.24 35.4765 77.73C35.4765 77.12 36.0265 76.73 36.7465 76.73C37.3065 76.73 37.9165 76.99 38.3065 77.35L38.7565 76.54C38.2365 76.05 37.4865 75.82 36.7865 75.82C35.4765 75.82 34.4765 76.59 34.4765 77.78C34.4765 79.98 37.8865 79.63 37.8865 81.19C37.8865 81.8 37.3865 82.2 36.6465 82.2C35.9765 82.2 35.2965 81.85 34.8665 81.44L34.3065 82.19Z" fill="#3C4044"/>
<path d="M42.7757 83H45.3057C46.5457 83 47.5857 82.32 47.5857 80.99C47.5857 80.2 47.1657 79.5 46.4157 79.28V79.26C46.9557 78.98 47.2957 78.43 47.2957 77.74C47.2957 76.6 46.4457 75.94 45.2457 75.94H42.7757V83ZM43.7657 78.91V76.8H45.2357C45.9057 76.8 46.2857 77.22 46.2857 77.84C46.2857 78.46 45.8857 78.91 45.2457 78.91H43.7657ZM43.7657 82.14V79.73H45.3557C46.0957 79.73 46.5657 80.22 46.5657 80.93C46.5657 81.66 46.1157 82.14 45.3557 82.14H43.7657Z" fill="#3C4044"/>
<path d="M49.0159 83H53.2959V82.14H50.0059V79.87H52.5359V79.01H50.0059V76.8H53.1259V75.94H49.0159V83Z" fill="#3C4044"/>
<path d="M54.0905 83H59.2605V82.14H55.8405C55.5005 82.14 55.3205 82.16 55.3205 82.16V82.14C55.3205 82.14 55.5605 81.89 55.8205 81.5L59.2205 76.59V75.94H54.2605V76.8H57.4705C57.8005 76.8 57.9905 76.78 57.9905 76.78V76.8C57.9905 76.8 57.7505 77.04 57.4805 77.44L54.0905 82.34V83Z" fill="#3C4044"/>
<path d="M62.0152 83H63.0252L63.7352 80.97H66.3952L67.1052 83H68.1252L65.5952 75.94H64.5452L62.0152 83ZM63.9952 80.15L64.7852 77.92C64.9052 77.55 65.0552 76.91 65.0552 76.91H65.0752C65.0752 76.91 65.2352 77.55 65.3552 77.92L66.1352 80.15H63.9952Z" fill="#3C4044"/>
<path d="M69.2015 83H70.1915V80.39H71.7915C73.0815 80.39 74.0015 79.49 74.0015 78.15C74.0015 76.81 73.0815 75.94 71.7915 75.94H69.2015V83ZM70.1915 79.53V76.8H71.6415C72.4715 76.8 73.0015 77.31 73.0015 78.15C73.0015 79 72.4715 79.53 71.6315 79.53H70.1915Z" fill="#3C4044"/>
<path d="M74.7459 82.19C75.3559 82.79 76.2159 83.12 77.0659 83.12C78.5059 83.12 79.3159 82.22 79.3159 81.11C79.3159 78.84 75.9159 79.24 75.9159 77.73C75.9159 77.12 76.4659 76.73 77.1859 76.73C77.7459 76.73 78.3559 76.99 78.7459 77.35L79.1959 76.54C78.6759 76.05 77.9259 75.82 77.2259 75.82C75.9159 75.82 74.9159 76.59 74.9159 77.78C74.9159 79.98 78.3259 79.63 78.3259 81.19C78.3259 81.8 77.8259 82.2 77.0859 82.2C76.4159 82.2 75.7359 81.85 75.3059 81.44L74.7459 82.19Z" fill="#3C4044"/>
<path d="M82.3652 83H83.3451V76.8H85.7751V75.94H79.9352V76.8H82.3652V83Z" fill="#3C4044"/>
<path d="M85.5016 83H86.5116L87.2216 80.97H89.8816L90.5916 83H91.6116L89.0816 75.94H88.0316L85.5016 83ZM87.4816 80.15L88.2716 77.92C88.3916 77.55 88.5416 76.91 88.5416 76.91H88.5616C88.5616 76.91 88.7215 77.55 88.8416 77.92L89.6216 80.15H87.4816ZM87.2816 75.16H89.8216V74.45H87.2816V75.16Z" fill="#3C4044"/>
<path d="M92.0378 80.97C92.0378 82.49 93.0978 83.12 94.1278 83.12C95.1578 83.12 96.2178 82.5 96.2178 80.97V75.94H93.4578V76.8H95.2378V80.96C95.2378 81.88 94.6978 82.21 94.1278 82.21C93.3378 82.21 93.0178 81.6 93.0178 80.92V80.62H92.0378V80.97Z" fill="#3C4044"/>
<path d="M97.1715 83H98.1815L98.8915 80.97H101.551L102.261 83H103.281L100.751 75.94H99.7015L97.1715 83ZM99.1515 80.15L99.9415 77.92C100.061 77.55 100.211 76.91 100.211 76.91H100.231C100.231 76.91 100.391 77.55 100.511 77.92L101.291 80.15H99.1515Z" fill="#3C4044"/>
<path d="M103.838 82.19C104.448 82.79 105.308 83.12 106.158 83.12C107.598 83.12 108.408 82.22 108.408 81.11C108.408 78.84 105.008 79.24 105.008 77.73C105.008 77.12 105.558 76.73 106.278 76.73C106.838 76.73 107.448 76.99 107.838 77.35L108.288 76.54C107.768 76.05 107.018 75.82 106.318 75.82C105.008 75.82 104.008 76.59 104.008 77.78C104.008 79.98 107.418 79.63 107.418 81.19C107.418 81.8 106.918 82.2 106.178 82.2C105.508 82.2 104.828 81.85 104.398 81.44L103.838 82.19Z" fill="#3C4044"/>
<path d="M22.539 48H28.762L30.477 39.131C31.702 32.957 36.063 28.792 39.836 28.792C40.375 28.792 40.816 28.841 41.306 28.89L42.482 22.765C41.943 22.716 41.502 22.667 41.012 22.667C37.239 22.667 33.76 25.705 32.143 29.135H32.045C32.045 29.135 32.339 28.253 32.535 27.322L33.368 23.01H27.39L22.539 48Z" fill="white"/>
<path d="M39.5178 37.514C39.5178 44.178 44.6138 48.588 51.8168 48.588C59.5588 48.588 67.3008 42.218 67.3008 33.447C67.3008 26.881 62.2048 22.422 55.0018 22.422C47.2108 22.422 39.5178 28.841 39.5178 37.514ZM45.8388 37.22C45.8388 31.732 50.4448 27.714 54.9038 27.714C58.4318 27.714 60.9798 30.164 60.9798 33.839C60.9798 39.376 56.3248 43.296 51.9148 43.296C48.3378 43.296 45.8388 40.944 45.8388 37.22Z" fill="white"/>
<path d="M68.3136 42.316C68.3136 46.971 71.4986 48.245 74.8306 48.245C75.5166 48.245 76.2516 48.147 76.6436 48.098L77.7216 42.659C77.2316 42.708 77.0356 42.708 76.8396 42.708C75.8106 42.708 74.7326 42.463 74.7326 40.846C74.7326 40.405 74.8306 39.719 74.9286 39.082L79.9756 13.21H73.7526L68.5586 39.817C68.3626 40.797 68.3136 41.63 68.3136 42.316Z" fill="white"/>
<path d="M79.8212 42.316C79.8212 46.971 83.0062 48.245 86.3382 48.245C87.0242 48.245 87.7592 48.147 88.1512 48.098L89.2292 42.659C88.7392 42.708 88.5432 42.708 88.3472 42.708C87.3182 42.708 86.2402 42.463 86.2402 40.846C86.2402 40.405 86.3382 39.719 86.4362 39.082L91.4832 13.21H85.2602L80.0662 39.817C79.8702 40.797 79.8212 41.63 79.8212 42.316Z" fill="white"/>
<path d="M95.7388 18.747H101.962L103.04 13.21H96.8168L95.7388 18.747ZM90.0548 48H96.2288L101.129 23.01H94.9058L90.0548 48Z" fill="white"/>
<path d="M100.127 48H106.35L108.506 36.73C109.388 32.173 113.112 28.106 117.424 28.106C119.433 28.106 120.56 29.037 120.56 31.144C120.56 31.781 120.462 32.565 120.315 33.398L117.473 48H123.696L126.734 32.222C126.93 31.144 127.077 30.164 127.077 29.233C127.077 24.431 123.941 22.422 119.531 22.422C115.17 22.422 111.397 25.362 110.025 27.714H109.927C109.927 27.714 110.368 26.489 110.613 25.264L111.005 23.01H104.978L100.127 48Z" fill="white"/>
<path d="M129.29 51.381L126.742 55.938C129.388 57.604 133.014 58.29 136.248 58.29C142.275 58.29 148.792 55.448 150.507 46.873L155.113 23.01H149.282L148.89 24.97C148.841 25.362 148.841 25.852 148.841 25.852H148.694C147.371 23.255 144.186 22.422 141.442 22.422C132.965 22.422 128.212 30.311 128.212 37.269C128.212 43.149 131.544 47.51 137.816 47.51C140.903 47.51 143.059 46.285 144.823 44.031H144.921C144.921 44.031 144.627 44.864 144.529 45.452L144.284 46.922C143.402 51.381 139.776 52.998 136.052 52.998C133.406 52.998 130.711 52.312 129.29 51.381ZM134.533 36.779C134.533 32.173 137.228 27.714 141.981 27.714C144.774 27.714 147.028 28.792 147.028 32.418C147.028 36.681 144.48 42.267 139.531 42.267C136.199 42.267 134.533 40.062 134.533 36.779Z" fill="white"/>
<path d="M157.089 37.955H162.528L167.869 13.21H161.401L157.089 37.955ZM154.933 48H160.96L162.087 42.169H156.06L154.933 48Z" fill="white"/>
</svg>
