<svg width="149" height="63" viewBox="0 0 149 63" fill="none" xmlns="http://www.w3.org/2000/svg">
<g clip-path="url(#clip0_5513_27759)">
<path fill-rule="evenodd" clip-rule="evenodd" d="M0 53H149V7H0V53Z" fill="#D82333"/>
<path fill-rule="evenodd" clip-rule="evenodd" d="M11.0264 22H9.7959V14.8906H11.0264V22ZM15.9607 20.1689C15.9607 19.8564 15.8509 19.6156 15.6312 19.4463C15.4114 19.277 15.0151 19.1061 14.4422 18.9336C13.8693 18.7611 13.4135 18.569 13.075 18.3574C12.4272 17.9505 12.1033 17.4199 12.1033 16.7656C12.1033 16.1927 12.3369 15.7207 12.804 15.3496C13.2711 14.9785 13.8774 14.793 14.6229 14.793C15.1176 14.793 15.5587 14.8841 15.9461 15.0664C16.3335 15.2487 16.6378 15.5083 16.8592 15.8452C17.0805 16.1821 17.1912 16.5557 17.1912 16.9658H15.9607C15.9607 16.5947 15.8444 16.3042 15.6116 16.0942C15.3789 15.8843 15.046 15.7793 14.6131 15.7793C14.2094 15.7793 13.8961 15.8656 13.6731 16.0381C13.4502 16.2106 13.3387 16.4515 13.3387 16.7607C13.3387 17.0212 13.4591 17.2384 13.7 17.4126C13.9409 17.5868 14.338 17.756 14.8914 17.9204C15.4448 18.0848 15.8891 18.272 16.2244 18.4819C16.5597 18.6919 16.8055 18.9328 16.9617 19.2046C17.118 19.4764 17.1961 19.7946 17.1961 20.1592C17.1961 20.7516 16.969 21.2228 16.5149 21.5728C16.0608 21.9227 15.4448 22.0977 14.6668 22.0977C14.1525 22.0977 13.6797 22.0024 13.2483 21.812C12.817 21.6216 12.4817 21.3587 12.2425 21.0234C12.0032 20.6881 11.8836 20.2975 11.8836 19.8516H13.1189C13.1189 20.2552 13.2524 20.5677 13.5193 20.7891C13.7863 21.0104 14.1687 21.1211 14.6668 21.1211C15.0965 21.1211 15.4196 21.034 15.636 20.8599C15.8525 20.6857 15.9607 20.4554 15.9607 20.1689ZM23.6539 18.6309C23.6539 19.3275 23.5335 19.9386 23.2926 20.4644C23.0517 20.9901 22.7075 21.3937 22.2599 21.6753C21.8123 21.9569 21.2971 22.0977 20.7145 22.0977C20.1383 22.0977 19.6248 21.9569 19.1739 21.6753C18.7231 21.3937 18.3748 20.9925 18.129 20.4717C17.8832 19.9508 17.7587 19.3503 17.7555 18.6699V18.2695C17.7555 17.5762 17.8784 16.9642 18.1241 16.4336C18.3699 15.903 18.7166 15.4969 19.1642 15.2153C19.6118 14.9338 20.1253 14.793 20.7047 14.793C21.2841 14.793 21.7976 14.9321 22.2452 15.2104C22.6928 15.4888 23.0387 15.8892 23.2828 16.4116C23.527 16.9341 23.6507 17.542 23.6539 18.2354V18.6309ZM22.4186 18.2598C22.4186 17.472 22.2696 16.8682 21.9718 16.4482C21.6739 16.0283 21.2516 15.8184 20.7047 15.8184C20.1708 15.8184 19.7534 16.0275 19.4522 16.4458C19.1511 16.8641 18.9973 17.4557 18.9908 18.2207V18.6309C18.9908 19.4121 19.143 20.0159 19.4474 20.4424C19.7517 20.8688 20.1741 21.082 20.7145 21.082C21.2613 21.082 21.6821 20.8737 21.9767 20.457C22.2713 20.0404 22.4186 19.4316 22.4186 18.6309V18.2598ZM29.7971 22H28.6154V16.292L26.8723 16.8877V15.8867L29.6457 14.8662H29.7971V22ZM35.9814 19.4658H36.8652V20.418H35.9814V22H34.7949V20.418H31.7236L31.6895 19.6953L34.7559 14.8906H35.9814V19.4658ZM32.9346 19.4658H34.7949V16.4971L34.707 16.6533L32.9346 19.4658ZM41.9852 19.0068C41.9852 20.029 41.7939 20.7996 41.4114 21.3188C41.0289 21.8381 40.4471 22.0977 39.6658 22.0977C38.8976 22.0977 38.319 21.8446 37.93 21.3384C37.541 20.8322 37.3416 20.0827 37.3318 19.0898V17.8594C37.3318 16.8372 37.5231 16.0706 37.9056 15.5596C38.2881 15.0485 38.8715 14.793 39.6561 14.793C40.4341 14.793 41.0143 15.042 41.3968 15.54C41.7793 16.0381 41.9754 16.7835 41.9852 17.7764V19.0068ZM40.7986 17.6787C40.7986 17.0114 40.7075 16.5223 40.5252 16.2114C40.3429 15.9006 40.0532 15.7451 39.6561 15.7451C39.2687 15.7451 38.9839 15.8924 38.8016 16.187C38.6193 16.4816 38.5232 16.9414 38.5135 17.5664V19.1777C38.5135 19.8418 38.6063 20.3366 38.7918 20.6621C38.9773 20.9876 39.2687 21.1504 39.6658 21.1504C40.0467 21.1504 40.3283 20.9998 40.5105 20.6987C40.6928 20.3976 40.7889 19.9264 40.7986 19.2852V17.6787ZM47.3688 19.0068C47.3688 20.029 47.1775 20.7996 46.795 21.3188C46.4125 21.8381 45.8307 22.0977 45.0494 22.0977C44.2812 22.0977 43.7026 21.8446 43.3136 21.3384C42.9246 20.8322 42.7252 20.0827 42.7154 19.0898V17.8594C42.7154 16.8372 42.9067 16.0706 43.2892 15.5596C43.6716 15.0485 44.2551 14.793 45.0396 14.793C45.8176 14.793 46.3979 15.042 46.7804 15.54C47.1629 16.0381 47.359 16.7835 47.3688 17.7764V19.0068ZM46.1822 17.6787C46.1822 17.0114 46.0911 16.5223 45.9088 16.2114C45.7265 15.9006 45.4368 15.7451 45.0396 15.7451C44.6523 15.7451 44.3675 15.8924 44.1852 16.187C44.0029 16.4816 43.9068 16.9414 43.8971 17.5664V19.1777C43.8971 19.8418 43.9898 20.3366 44.1754 20.6621C44.3609 20.9876 44.6523 21.1504 45.0494 21.1504C45.4303 21.1504 45.7118 20.9998 45.8941 20.6987C46.0764 20.3976 46.1725 19.9264 46.1822 19.2852V17.6787ZM51.3314 22H50.1498V16.292L48.4066 16.8877V15.8867L51.1801 14.8662H51.3314V22ZM9.72266 33V25.8906H12.1592C12.9632 25.8906 13.5752 26.0518 13.9951 26.374C14.415 26.6963 14.625 27.1764 14.625 27.8145C14.625 28.14 14.5371 28.4329 14.3613 28.6934C14.1855 28.9538 13.9284 29.1556 13.5898 29.2988C13.974 29.403 14.271 29.5991 14.481 29.8872C14.6909 30.1753 14.7959 30.5212 14.7959 30.9248C14.7959 31.5921 14.5819 32.1048 14.1538 32.4629C13.7257 32.821 13.113 33 12.3154 33H9.72266ZM10.958 29.792V32.0137H12.3301C12.7174 32.0137 13.0202 31.9176 13.2383 31.7256C13.4564 31.5335 13.5654 31.2666 13.5654 30.9248C13.5654 30.1859 13.1878 29.8083 12.4326 29.792H10.958ZM10.958 28.8838H12.1689C12.5531 28.8838 12.8534 28.7967 13.0698 28.6226C13.2863 28.4484 13.3945 28.2018 13.3945 27.8828C13.3945 27.5312 13.2944 27.2773 13.0942 27.1211C12.894 26.9648 12.5824 26.8867 12.1592 26.8867H10.958V28.8838ZM20.9314 25.8906V30.6416C20.9314 31.3968 20.6897 31.995 20.2063 32.436C19.7229 32.8771 19.0792 33.0977 18.2752 33.0977C17.4614 33.0977 16.8152 32.8804 16.3367 32.4458C15.8582 32.0112 15.6189 31.4082 15.6189 30.6367V25.8906H16.8494V30.6465C16.8494 31.1217 16.9699 31.4847 17.2107 31.7354C17.4516 31.986 17.8064 32.1113 18.2752 32.1113C19.2257 32.1113 19.701 31.61 19.701 30.6074V25.8906H20.9314ZM24.5621 30.2607H23.1852V33H21.9498V25.8906H24.4498C25.2701 25.8906 25.9033 26.0745 26.3492 26.4424C26.7952 26.8102 27.0182 27.3424 27.0182 28.0391C27.0182 28.5143 26.9034 28.9123 26.6739 29.2329C26.4444 29.5535 26.1246 29.8001 25.7145 29.9727L27.3111 32.9365V33H25.9879L24.5621 30.2607ZM23.1852 29.2695H24.4547C24.8714 29.2695 25.1969 29.1646 25.4312 28.9546C25.6656 28.7446 25.7828 28.4574 25.7828 28.0928C25.7828 27.7119 25.6746 27.4173 25.4581 27.209C25.2416 27.0007 24.9186 26.8932 24.4889 26.8867H23.1852V29.2695ZM32.0453 29.8262H29.1254V32.0137H32.5385V33H27.89V25.8906H32.5043V26.8867H29.1254V28.8496H32.0453V29.8262ZM37.2238 31.3447H34.4699L33.8937 33H32.6096L35.2951 25.8906H36.4035L39.0939 33H37.8049L37.2238 31.3447ZM34.8166 30.3486H36.8771L35.8469 27.3994L34.8166 30.3486ZM44.7168 25.8906V30.6416C44.7168 31.3968 44.4751 31.995 43.9917 32.436C43.5083 32.8771 42.8646 33.0977 42.0605 33.0977C41.2467 33.0977 40.6006 32.8804 40.1221 32.4458C39.6436 32.0112 39.4043 31.4082 39.4043 30.6367V25.8906H40.6348V30.6465C40.6348 31.1217 40.7552 31.4847 40.9961 31.7354C41.237 31.986 41.5918 32.1113 42.0605 32.1113C43.0111 32.1113 43.4863 31.61 43.4863 30.6074V25.8906H44.7168ZM50.4303 31.4521L52.2369 25.8906H53.5943L51.0357 33H49.8395L47.2906 25.8906H48.6432L50.4303 31.4521ZM58.2504 29.8262H55.3305V32.0137H58.7436V33H54.0951V25.8906H58.7094V26.8867H55.3305V28.8496H58.2504V29.8262ZM62.0617 30.2607H60.6848V33H59.4494V25.8906H61.9494C62.7697 25.8906 63.4029 26.0745 63.8488 26.4424C64.2948 26.8102 64.5178 27.3424 64.5178 28.0391C64.5178 28.5143 64.403 28.9123 64.1735 29.2329C63.944 29.5535 63.6242 29.8001 63.2141 29.9727L64.8107 32.9365V33H63.4875L62.0617 30.2607ZM60.6848 29.2695H61.9543C62.371 29.2695 62.6965 29.1646 62.9309 28.9546C63.1652 28.7446 63.2824 28.4574 63.2824 28.0928C63.2824 27.7119 63.1742 27.4173 62.9577 27.209C62.7412 27.0007 62.4182 26.8932 61.9885 26.8867H60.6848V29.2695ZM66.6934 33H65.4629V25.8906H66.6934V33ZM72.907 26.8867H70.6902V33H69.4646V26.8867H67.2674V25.8906H72.907V26.8867ZM76.9332 31.3447H74.1793L73.6031 33H72.3189L75.0045 25.8906H76.1129L78.8033 33H77.5143L76.9332 31.3447ZM74.526 30.3486H76.5865L75.5563 27.3994L74.526 30.3486ZM83.0248 31.1689C83.0248 30.8564 82.9149 30.6156 82.6952 30.4463C82.4755 30.277 82.0792 30.1061 81.5062 29.9336C80.9333 29.7611 80.4776 29.569 80.1391 29.3574C79.4913 28.9505 79.1674 28.4199 79.1674 27.7656C79.1674 27.1927 79.4009 26.7207 79.8681 26.3496C80.3352 25.9785 80.9415 25.793 81.6869 25.793C82.1817 25.793 82.6228 25.8841 83.0102 26.0664C83.3975 26.2487 83.7019 26.5083 83.9232 26.8452C84.1446 27.1821 84.2553 27.5557 84.2553 27.9658H83.0248C83.0248 27.5947 82.9084 27.3042 82.6757 27.0942C82.4429 26.8843 82.1101 26.7793 81.6771 26.7793C81.2735 26.7793 80.9602 26.8656 80.7372 27.0381C80.5142 27.2106 80.4027 27.4515 80.4027 27.7607C80.4027 28.0212 80.5232 28.2384 80.7641 28.4126C81.005 28.5868 81.4021 28.756 81.9555 28.9204C82.5089 29.0848 82.9532 29.272 83.2885 29.4819C83.6238 29.6919 83.8695 29.9328 84.0258 30.2046C84.182 30.4764 84.2602 30.7946 84.2602 31.1592C84.2602 31.7516 84.0331 32.2228 83.579 32.5728C83.1249 32.9227 82.5089 33.0977 81.7309 33.0977C81.2165 33.0977 80.7437 33.0024 80.3124 32.812C79.8811 32.6216 79.5458 32.3587 79.3065 32.0234C79.0673 31.6881 78.9477 31.2975 78.9477 30.8516H80.183C80.183 31.2552 80.3165 31.5677 80.5834 31.7891C80.8503 32.0104 81.2328 32.1211 81.7309 32.1211C82.1605 32.1211 82.4836 32.034 82.7001 31.8599C82.9166 31.6857 83.0248 31.4554 83.0248 31.1689ZM15.1475 41.6855C15.0758 42.444 14.7959 43.0356 14.3076 43.4604C13.8193 43.8853 13.1699 44.0977 12.3594 44.0977C11.793 44.0977 11.2941 43.9634 10.8628 43.6948C10.4315 43.4263 10.0986 43.0446 9.86426 42.5498C9.62988 42.055 9.50781 41.4805 9.49805 40.8262V40.1621C9.49805 39.4915 9.61686 38.9007 9.85449 38.3896C10.0921 37.8786 10.4331 37.4847 10.8774 37.208C11.3218 36.9313 11.8353 36.793 12.418 36.793C13.2025 36.793 13.834 37.0062 14.3125 37.4326C14.791 37.8591 15.0693 38.4613 15.1475 39.2393H13.917C13.8584 38.7282 13.7095 38.3595 13.4702 38.1333C13.231 37.9071 12.8802 37.7939 12.418 37.7939C11.8809 37.7939 11.4683 37.9901 11.1802 38.3823C10.8921 38.7746 10.7448 39.3499 10.7383 40.1084V40.7383C10.7383 41.5065 10.8758 42.0924 11.1509 42.4961C11.4259 42.8997 11.8288 43.1016 12.3594 43.1016C12.8444 43.1016 13.209 42.9925 13.4531 42.7744C13.6973 42.5563 13.8519 42.1934 13.917 41.6855H15.1475ZM18.1629 44.0977C17.4109 44.0977 16.8014 43.8608 16.3343 43.3872C15.8672 42.9136 15.6336 42.2829 15.6336 41.4951V41.3486C15.6336 40.8213 15.7353 40.3501 15.9388 39.9351C16.1422 39.52 16.4279 39.1969 16.7957 38.9658C17.1635 38.7347 17.5737 38.6191 18.0262 38.6191C18.7456 38.6191 19.3014 38.8486 19.6937 39.3076C20.0859 39.7666 20.282 40.416 20.282 41.2559V41.7344H16.8299C16.8657 42.1706 17.0114 42.5156 17.2669 42.7695C17.5224 43.0234 17.8439 43.1504 18.2313 43.1504C18.7749 43.1504 19.2176 42.9307 19.5594 42.4912L20.199 43.1016C19.9874 43.4173 19.705 43.6623 19.3519 43.8364C18.9987 44.0106 18.6023 44.0977 18.1629 44.0977ZM18.0213 39.5713C17.6958 39.5713 17.4329 39.6852 17.2327 39.9131C17.0325 40.141 16.9048 40.4583 16.8494 40.8652H19.1102V40.7773C19.0841 40.3802 18.9783 40.0799 18.7928 39.8765C18.6072 39.673 18.3501 39.5713 18.0213 39.5713ZM23.6686 39.8008C23.5123 39.7747 23.3512 39.7617 23.1852 39.7617C22.6415 39.7617 22.2753 39.9701 22.0865 40.3867V44H20.9V38.7168H22.0328L22.0621 39.3076C22.3486 38.8486 22.7457 38.6191 23.2535 38.6191C23.4228 38.6191 23.5628 38.6419 23.6734 38.6875L23.6686 39.8008ZM25.849 37.4326V38.7168H26.7816V39.5957H25.849V42.5449C25.849 42.7467 25.8889 42.8924 25.9687 42.9819C26.0484 43.0715 26.1908 43.1162 26.3959 43.1162C26.5326 43.1162 26.671 43.0999 26.8109 43.0674V43.9854C26.5408 44.0602 26.2803 44.0977 26.0297 44.0977C25.1182 44.0977 24.6625 43.5947 24.6625 42.5889V39.5957H23.7934V38.7168H24.6625V37.4326H25.849ZM28.6496 44H27.4631V38.7168H28.6496V44ZM27.3898 37.3447C27.3898 37.1624 27.4476 37.0111 27.5632 36.8906C27.6787 36.7702 27.8439 36.71 28.0588 36.71C28.2736 36.71 28.4396 36.7702 28.5568 36.8906C28.674 37.0111 28.7326 37.1624 28.7326 37.3447C28.7326 37.5238 28.674 37.6727 28.5568 37.7915C28.4396 37.9103 28.2736 37.9697 28.0588 37.9697C27.8439 37.9697 27.6787 37.9103 27.5632 37.7915C27.4476 37.6727 27.3898 37.5238 27.3898 37.3447ZM29.9561 44V39.5957H29.1504V38.7168H29.9561V38.3555C29.9593 37.9421 30.0472 37.5872 30.2197 37.291C30.3923 36.9948 30.6364 36.7718 30.9521 36.6221C31.2679 36.4723 31.6471 36.3975 32.0898 36.3975C32.3503 36.3975 32.6001 36.4251 32.8394 36.4805C33.0786 36.5358 33.3268 36.6058 33.584 36.6904L33.4033 37.6719C32.9541 37.5156 32.5439 37.4375 32.1729 37.4375C31.8115 37.4375 31.5495 37.5164 31.3867 37.6743C31.224 37.8322 31.1426 38.069 31.1426 38.3848V38.7168H32.1826V39.5957H31.1426V44H29.9561ZM34.1455 44H32.959V38.7168H34.1455V44ZM37.3318 43.1504C37.6281 43.1504 37.8738 43.0641 38.0691 42.8916C38.2645 42.7191 38.3686 42.5059 38.3816 42.252H39.4998C39.4868 42.5807 39.3842 42.8875 39.1922 43.1724C39.0001 43.4572 38.7397 43.6826 38.4109 43.8486C38.0822 44.0146 37.7273 44.0977 37.3465 44.0977C36.6075 44.0977 36.0216 43.8584 35.5887 43.3799C35.1557 42.9014 34.9393 42.2406 34.9393 41.3975V41.2754C34.9393 40.4713 35.1541 39.8276 35.5838 39.3442C36.0135 38.8608 36.5994 38.6191 37.3416 38.6191C37.9699 38.6191 38.4817 38.8022 38.8772 39.1685C39.2728 39.5347 39.4803 40.0156 39.4998 40.6113H38.3816C38.3686 40.3086 38.2653 40.0596 38.0716 39.8643C37.8779 39.6689 37.6313 39.5713 37.3318 39.5713C36.9477 39.5713 36.6515 39.7104 36.4432 39.9888C36.2348 40.2671 36.129 40.6894 36.1258 41.2559V41.4463C36.1258 42.0192 36.2291 42.4465 36.4358 42.728C36.6425 43.0096 36.9412 43.1504 37.3318 43.1504ZM43.2525 44C43.2005 43.8991 43.1549 43.7347 43.1158 43.5068C42.7382 43.9007 42.276 44.0977 41.7291 44.0977C41.1985 44.0977 40.7656 43.9463 40.4303 43.6436C40.095 43.3408 39.9273 42.9665 39.9273 42.5205C39.9273 41.9574 40.1365 41.5252 40.5548 41.2241C40.9731 40.923 41.5712 40.7725 42.3492 40.7725H43.0768V40.4258C43.0768 40.1523 43.0003 39.9334 42.8473 39.769C42.6943 39.6047 42.4615 39.5225 42.149 39.5225C41.8788 39.5225 41.6575 39.59 41.485 39.7251C41.3124 39.8602 41.2262 40.0319 41.2262 40.2402H40.0396C40.0396 39.9505 40.1357 39.6795 40.3277 39.4272C40.5198 39.175 40.781 38.9772 41.1114 38.834C41.4418 38.6908 41.8105 38.6191 42.2174 38.6191C42.8359 38.6191 43.329 38.7746 43.6969 39.0854C44.0647 39.3963 44.2535 39.8333 44.2633 40.3965V42.7793C44.2633 43.2546 44.33 43.6338 44.4635 43.917V44H43.2525ZM41.9488 43.1455C42.1832 43.1455 42.4037 43.0885 42.6105 42.9746C42.8172 42.8607 42.9726 42.7077 43.0768 42.5156V41.5195H42.4371C41.9977 41.5195 41.6673 41.596 41.4459 41.749C41.2245 41.902 41.1139 42.1185 41.1139 42.3984C41.1139 42.6263 41.1896 42.8078 41.3409 42.9429C41.4923 43.078 41.6949 43.1455 41.9488 43.1455ZM46.6928 37.4326V38.7168H47.6254V39.5957H46.6928V42.5449C46.6928 42.7467 46.7326 42.8924 46.8124 42.9819C46.8922 43.0715 47.0346 43.1162 47.2396 43.1162C47.3764 43.1162 47.5147 43.0999 47.6547 43.0674V43.9854C47.3845 44.0602 47.1241 44.0977 46.8734 44.0977C45.962 44.0977 45.5062 43.5947 45.5062 42.5889V39.5957H44.6371V38.7168H45.5062V37.4326H46.6928ZM49.4934 44H48.3068V38.7168H49.4934V44ZM48.2336 37.3447C48.2336 37.1624 48.2914 37.0111 48.4069 36.8906C48.5225 36.7702 48.6877 36.71 48.9025 36.71C49.1174 36.71 49.2834 36.7702 49.4006 36.8906C49.5178 37.0111 49.5764 37.1624 49.5764 37.3447C49.5764 37.5238 49.5178 37.6727 49.4006 37.7915C49.2834 37.9103 49.1174 37.9697 48.9025 37.9697C48.6877 37.9697 48.5225 37.9103 48.4069 37.7915C48.2914 37.6727 48.2336 37.5238 48.2336 37.3447ZM50.2627 41.3096C50.2627 40.792 50.3652 40.3257 50.5703 39.9106C50.7754 39.4956 51.0635 39.1766 51.4346 38.9536C51.8057 38.7306 52.2321 38.6191 52.7139 38.6191C53.4268 38.6191 54.0054 38.8486 54.4497 39.3076C54.894 39.7666 55.1341 40.3753 55.1699 41.1338L55.1748 41.4121C55.1748 41.9329 55.0747 42.3984 54.8745 42.8086C54.6743 43.2188 54.3879 43.5361 54.0151 43.7607C53.6424 43.9854 53.2119 44.0977 52.7236 44.0977C51.9782 44.0977 51.3817 43.8494 50.9341 43.353C50.4865 42.8566 50.2627 42.195 50.2627 41.3682V41.3096ZM51.4492 41.4121C51.4492 41.9557 51.5615 42.3813 51.7861 42.689C52.0107 42.9966 52.3232 43.1504 52.7236 43.1504C53.124 43.1504 53.4357 42.9941 53.6587 42.6816C53.8817 42.3691 53.9932 41.9118 53.9932 41.3096C53.9932 40.7757 53.8784 40.3525 53.6489 40.04C53.4194 39.7275 53.1077 39.5713 52.7139 39.5713C52.3265 39.5713 52.0189 39.7251 51.791 40.0327C51.5631 40.3403 51.4492 40.8001 51.4492 41.4121ZM56.9793 38.7168L57.0135 39.3271C57.4041 38.8551 57.9168 38.6191 58.5516 38.6191C59.6518 38.6191 60.2117 39.249 60.2313 40.5088V44H59.0447V40.5771C59.0447 40.2419 58.9723 39.9937 58.8274 39.8325C58.6826 39.6714 58.4458 39.5908 58.117 39.5908C57.6385 39.5908 57.282 39.8073 57.0477 40.2402V44H55.8611V38.7168H56.9793Z" fill="white"/>
<path fill-rule="evenodd" clip-rule="evenodd" d="M116.753 62.3084H116.827C120.334 62.3084 123.636 61.7952 126.827 60.829C130.26 59.6334 133.516 57.2373 135.484 54.255C138.73 49.5017 141.678 40.315 141.807 31.1645V31.1397C141.678 21.9927 138.73 12.8032 135.484 8.05126C133.516 5.06902 130.335 2.67078 126.902 1.47519C123.71 0.513202 120.257 0 116.753 0C113.249 0 109.795 0.513202 106.605 1.47519C103.171 2.67078 99.9894 5.06902 98.0226 8.05126C94.7752 12.8032 91.827 21.9927 91.699 31.1397V31.1645C91.827 40.315 94.7752 49.5017 98.0226 54.255C99.9894 57.2373 103.171 59.6235 106.605 60.8191C109.795 61.7846 113.171 62.3084 116.678 62.3084H116.753Z" fill="#6D6C5D"/>
<path fill-rule="evenodd" clip-rule="evenodd" d="M139.451 31.018C139.563 37.909 137.466 46.2725 135.44 50.7242C133.203 55.8088 129.782 58.9036 124.755 60.2776C122.049 60.9727 119.21 61.328 116.292 61.328C113.374 61.328 110.518 60.9727 107.812 60.2776C102.786 58.9036 99.3634 55.8088 97.1263 50.7242C95.1015 46.2725 93.0059 37.909 93.1184 31.018C93.0059 24.1304 95.1015 15.7656 97.1263 11.3131C99.3634 6.22994 102.786 3.13374 107.812 1.75907C110.518 1.06677 113.374 0.707886 116.292 0.707886C119.21 0.707886 122.049 1.06677 124.755 1.75907C129.782 3.13374 133.203 6.22994 135.44 11.3131C137.466 15.7656 139.563 24.1304 139.451 31.018Z" fill="#FEFEFE"/>
<path fill-rule="evenodd" clip-rule="evenodd" d="M116.771 8.49438C119.175 8.49438 121.577 8.83133 123.793 9.43018C126.151 10.1034 128.091 11.7315 129.063 13.9464C131.178 18.4866 132.57 25.0223 132.57 31.4441C132.57 37.8694 131.178 44.4023 129.063 48.9411C128.091 51.1595 126.151 52.7841 123.793 53.4601C121.577 54.059 119.175 54.3938 116.771 54.3938H116.693C114.288 54.3938 111.885 54.059 109.669 53.4601C107.311 52.7841 105.372 51.1595 104.399 48.9411C102.285 44.4023 100.896 37.8694 100.896 31.4441C100.896 25.0223 102.285 18.4866 104.399 13.9464C105.372 11.7315 107.311 10.1034 109.669 9.43018C111.885 8.83133 114.288 8.49438 116.693 8.49438H116.771Z" fill="#6D6C5D"/>
<path fill-rule="evenodd" clip-rule="evenodd" d="M119.699 16.998C119.364 16.4317 119.639 16.9371 119.291 16.2809L119.699 16.998Z" fill="#FEFEFE"/>
<path fill-rule="evenodd" clip-rule="evenodd" d="M113.082 29.7303V32.0394L105.141 32.0444V29.7332L113.082 29.7303Z" fill="#FEFEFE"/>
<path fill-rule="evenodd" clip-rule="evenodd" d="M111.051 49.7127C110.881 49.3474 110.819 49.2165 110.801 48.8427C112.466 48.8427 113.581 48.8427 115.342 48.8441C115.333 49.4734 114.975 50.0928 114.404 50.5034C113.775 50.9614 112.727 51.0619 112.029 50.6718C111.63 50.4828 111.271 50.0928 111.051 49.7127Z" fill="#FEFEFE"/>
<path fill-rule="evenodd" clip-rule="evenodd" d="M116.068 48.0492L113.631 48.052V46.9208L116.074 46.9194L116.844 46.0112C117.221 46.4494 117.246 46.4784 117.636 46.9194H120.076V48.052L117.632 48.0492V50.8544H116.068V48.0492Z" fill="#FEFEFE"/>
<path fill-rule="evenodd" clip-rule="evenodd" d="M116.461 44.6521C116.963 44.4851 117.667 44.1955 117.809 43.7135C117.773 42.961 118.289 42.3558 118.677 41.7569C118.87 41.4957 118.895 41.3379 118.839 41.0562C119.618 41.0866 120.405 41.7364 120.703 42.4648C121.013 43.2031 120.893 44.1736 120.415 44.7901C119.816 45.5207 118.988 45.9008 118.018 45.7288C117.411 45.5907 116.814 45.2205 116.461 44.6521Z" fill="#FEFEFE"/>
<path fill-rule="evenodd" clip-rule="evenodd" d="M110.605 34.1867C110.17 33.9715 109.582 33.883 109.099 34.1131C108.709 34.2207 108.298 34.6829 108.261 35.1423C108.236 36.5177 108.286 36.9417 108.261 38.4523C108.236 38.6894 108.111 38.802 107.812 38.802C107.561 38.7893 107.376 38.6647 107.377 38.4481V35.0723C107.357 34.7141 107.298 34.363 107.049 34.0933L105.302 34.6638L105.141 34.7211C105.584 35.0489 105.791 35.0581 105.827 35.601L105.823 39.9204L105.85 40.1484L105.913 40.2991L105.961 40.4379L106.023 40.5497C106.312 41.0112 106.799 41.1981 107.139 41.2824C107.289 41.3291 107.554 41.3489 107.705 41.3517C108.155 41.3538 108.585 41.3227 109.047 40.9992C109.766 40.4379 109.607 39.4518 109.626 38.0177C109.63 37.6149 109.657 37.3891 109.908 37.1583C110.117 36.9998 110.409 36.9495 110.677 37.009C110.98 37.0918 111.031 37.1166 111.333 37.3176C111.343 36.081 111.379 34.5576 110.605 34.1867Z" fill="#FEFEFE"/>
<path fill-rule="evenodd" clip-rule="evenodd" d="M126.631 39.5796C125.357 38.3245 123.148 36.5768 122.971 35.8364C122.78 35.3373 122.841 34.7371 122.829 34.1601C123.197 33.8685 123.504 33.6179 123.95 33.2697C123.917 34.1538 123.792 35.0521 124.216 35.5773C125.257 36.6157 126.204 37.5544 127.143 38.471C127.492 38.8512 127.769 39.3906 127.54 39.891C127.432 40.1274 127.282 40.4 127.12 40.6201C127.12 40.1317 126.909 39.8542 126.631 39.5796Z" fill="#FEFEFE"/>
<path fill-rule="evenodd" clip-rule="evenodd" d="M119.298 33.276C120.27 33.2605 120.586 33.2888 121.598 33.2697V40.0913H119.291L119.298 33.276Z" fill="#FEFEFE"/>
<path fill-rule="evenodd" clip-rule="evenodd" d="M124.244 33.9195C124.49 33.6498 124.575 33.5486 124.864 33.2697L125.444 33.969V35.9093C126.26 35.51 126.06 34.347 126.06 33.3397C126.549 33.7368 126.793 33.9619 127.258 34.398C127.519 35.5596 126.823 36.2222 126.3 37.0348L124.244 35.0669V33.9195Z" fill="#FEFEFE"/>
<path fill-rule="evenodd" clip-rule="evenodd" d="M126.612 28.9241L126.921 27.6252L127.927 27.4758L127.924 24.2529C127.538 24.3102 127.376 24.3527 127.06 24.3888V21.9438C126.53 22.0529 125.972 22.2433 125.413 22.3728V26.4282C125.406 26.6243 125.094 26.6901 125.029 26.6865H124.945C124.745 26.6865 124.542 26.5499 124.542 26.4126V22.5052L122.933 22.7126V24.3605C122.364 25.5179 121.526 26.5683 120.706 27.6252C121.576 27.6846 121.638 27.6846 122.501 27.7653L123.034 28.9241H126.612Z" fill="#FEFEFE"/>
<path fill-rule="evenodd" clip-rule="evenodd" d="M108.067 28.3202C108.04 27.2521 107.996 26.5548 107.971 25.5043C108.302 25.4151 108.622 25.6247 108.88 25.8144C108.838 27.1544 108.838 27.1416 108.812 28.5432H108.073L108.067 28.3202Z" fill="#FEFEFE"/>
<path fill-rule="evenodd" clip-rule="evenodd" d="M108.221 21.7483C108.046 20.6978 108.034 20.6193 107.935 19.8527H107.264V19.1136C108.421 19.1101 109.06 19.1151 110.216 19.1151L110.218 19.8527H109.53L109.231 22.3266C108.931 22.0569 108.59 21.8679 108.221 21.7483Z" fill="#FEFEFE"/>
<path fill-rule="evenodd" clip-rule="evenodd" d="M107.509 19.123C106.522 18.064 106.45 16.472 106.64 15.0351L106.644 15.0301C106.823 15.5653 107.159 15.9468 107.693 16.1967C107.633 15.9178 107.384 15.6573 107.304 15.3578C107.076 14.7774 107.094 13.9499 107.474 13.4402C107.742 13.041 108.127 12.8775 108.553 12.7416C108.39 13.2201 108.341 13.7991 108.54 14.2833C108.815 14.0681 108.83 14.054 109.043 13.8487C109.126 13.7701 109.164 13.7439 109.232 13.6944C109.624 14.5332 110.073 15.6913 109.812 16.6702L109.648 17.0942C109.588 16.4027 109.475 16.0714 109.011 15.818C108.951 16.2214 109.207 16.5081 109.269 17.0334C109.457 17.8509 109.307 18.6508 108.805 19.123H107.509Z" fill="#FEFEFE"/>
<path fill-rule="evenodd" clip-rule="evenodd" d="M120.178 16.998L119.158 18.1157C118.884 17.8538 118.858 17.8226 118.584 17.5359C119.107 16.9866 119.16 16.9279 119.77 16.2809" fill="#FEFEFE"/>
<path fill-rule="evenodd" clip-rule="evenodd" d="M121.414 14.5778C121.623 13.6095 121.729 12.4939 122.796 12.0883C123.197 11.9757 123.741 12.0288 124.082 12.3268C124.542 12.6574 124.673 13.2166 124.561 13.7348C124.245 14.8581 122.992 15.0705 121.974 15.3402L121.414 14.5778Z" fill="#FEFEFE"/>
<path fill-rule="evenodd" clip-rule="evenodd" d="M128.649 29.7303V32.055L120.706 32.0444V29.7332L128.649 29.7303Z" fill="#FEFEFE"/>
<path fill-rule="evenodd" clip-rule="evenodd" d="M108.933 45.5122C108.612 44.0455 110.38 43.5146 110.798 42.2978C111.128 40.2598 111.228 38.1143 112.643 36.5258C112.784 33.5287 113.752 30.8827 115.878 28.7067C115.778 28.0364 115.497 27.4503 115.301 26.8189C115.02 26.8075 114.831 26.758 114.581 26.5301C114.396 26.2717 114.321 26.0777 114.273 25.7599C113.532 26.6787 112.615 27.7072 111.606 28.328C111.421 28.4293 111.185 28.2127 110.847 27.8977C109.611 26.9201 109.401 24.7016 107.513 24.8029C106.655 24.5112 106.696 23.5025 106.556 22.7444C106.875 22.5143 107.391 22.5264 107.775 22.6743C108.951 23.3043 109.735 24.6309 110.847 25.5214C111.145 25.7585 111.413 26.0721 111.689 26.1853C112.419 25.556 113.006 25.0159 113.497 24.0419C113.84 23.4933 114.41 23.2534 115.041 23.2442L115.489 22.7154L115.249 21.3966C114.792 20.8084 114.41 20.1897 114.102 19.5286C114.262 18.7704 114.364 17.8927 115.13 17.4736C115.629 17.1636 116.04 17.8729 116.446 17.422C116.747 17.3597 117.003 17.4425 117.211 17.6124C117.522 18.1518 117.894 18.6912 117.912 19.3183C117.721 19.9271 117.435 20.4983 117.146 21.0689C117.078 21.1984 116.903 21.2374 116.787 21.3273C116.856 21.5849 116.914 21.8766 117.093 22.0762C117.324 22.1257 117.535 22.1647 117.813 22.1165C118.033 21.4462 118.751 21.1482 119.35 20.9677L120.668 20.1083C120.459 19.1109 121.096 18.2311 120.739 17.2315C119.988 16.884 119.772 16.0303 119.612 15.3656C119.73 14.948 119.936 14.5084 120.233 14.1573L120.278 14.209C120.998 15.0457 121.656 15.905 121.884 16.9434C122.014 18.2721 122.145 19.6298 122.055 21.0172C121.347 21.7265 120.487 22.1463 119.68 22.6743L119.082 23.8239C119.01 25.0117 118.661 26.0813 118.483 27.2287C118.991 28.6161 119.599 30.4651 119.15 31.752C118.814 32.5186 118.087 32.9362 117.552 33.3588L116.208 34.439C117.557 35.9312 117.23 37.6216 117.29 39.7855C117.277 40.3079 118.212 40.7426 117.714 41.3386C117.295 42.0047 116.646 42.5469 116.757 43.4261C116.342 44.1212 115.348 44.2692 114.884 44.2649C114.784 44.2692 114.7 44.1948 114.7 44.095C114.801 43.7326 115.08 43.4551 115.23 43.1161C115.709 42.3777 115.489 41.3591 116.086 40.669C115.593 39.0635 114.849 37.5749 114.65 35.8569L114.631 35.7507C114.232 36.5379 114.452 37.3116 114.663 37.9302C113.335 39.6079 111.895 41.2183 111.895 43.4261C111.328 44.4355 110.519 45.3529 110.1 46.4218C109.956 46.5988 109.691 46.4423 109.531 46.3517C109.149 46.0997 109.064 45.8548 108.933 45.5122Z" fill="#FEFEFE"/>
<path fill-rule="evenodd" clip-rule="evenodd" d="M123.819 38.5567C125.094 39.8117 127.301 41.5595 127.482 42.302C127.671 42.8011 127.612 43.3992 127.622 43.9789C127.253 44.2678 126.948 44.5205 126.503 44.8666C126.536 43.9839 126.662 43.0842 126.234 42.559C125.194 41.5219 124.249 40.5833 123.311 39.6638C122.962 39.2851 122.682 38.7457 122.913 38.2481C123.022 38.0067 123.171 37.7384 123.33 37.5168C123.33 38.0046 123.54 38.282 123.819 38.5567Z" fill="#FEFEFE"/>
<path fill-rule="evenodd" clip-rule="evenodd" d="M125.899 44.1693C125.656 44.4405 125.566 44.5381 125.28 44.8177L124.7 44.1212V42.181C123.882 42.5809 124.084 43.7411 124.084 44.747C123.595 44.3534 123.351 44.1276 122.885 43.6908C122.625 42.5313 123.321 41.8674 123.845 41.0562L125.899 43.0219V44.1693Z" fill="#FEFEFE"/>
<path fill-rule="evenodd" clip-rule="evenodd" d="M122.169 49.7127C122.339 49.3474 122.4 49.2165 122.419 48.8427C120.753 48.8427 119.639 48.8427 117.876 48.8441C117.885 49.4734 118.246 50.0928 118.814 50.5034C119.443 50.9614 120.493 51.0619 121.19 50.6718C121.59 50.4828 121.949 50.0928 122.169 49.7127Z" fill="#FEFEFE"/>
<path fill-rule="evenodd" clip-rule="evenodd" d="M117.294 60.0452C117.272 58.7845 118.503 58.1453 119.279 57.3093C119.49 57.1061 119.57 56.7076 119.42 56.3742C119.328 56.1668 119.189 56.0677 119.023 56.0259C118.75 55.9608 118.518 56.004 118.347 56.1548C118.104 56.3784 118.039 56.6687 118.049 56.983L117.191 57.0339C117.116 56.5568 117.231 56.0925 117.523 55.7329C117.925 55.3018 118.531 55.1815 119.12 55.2204C119.589 55.2961 120.139 55.5807 120.331 56.0748C120.581 56.6071 120.497 57.2895 120.102 57.7404C119.592 58.2854 118.927 58.5785 118.506 59.1922L120.685 59.062C120.702 59.3331 120.716 59.5929 120.731 59.8392L117.294 60.0452Z" fill="#6D6C5D"/>
<path fill-rule="evenodd" clip-rule="evenodd" d="M109.763 54.0384L109.75 54.0788L108.329 58.4307L107.424 58.1334L108.398 55.1526L108.414 55.103C108.052 54.9756 107.618 54.851 107.264 54.7257L107.45 54.163C107.908 54.2833 108.38 54.3591 108.778 54.0285C108.924 53.9167 108.95 53.8834 109.028 53.7977L109.763 54.0384Z" fill="#6D6C5D"/>
<path fill-rule="evenodd" clip-rule="evenodd" d="M126.843 56.7285C126.729 56.301 126.49 55.9556 126.012 55.8175L125.737 55.7566C126.018 55.5577 126.28 55.1535 126.185 54.76C126.12 54.3105 125.794 54.0259 125.387 53.8695C125.031 53.7633 124.615 53.781 124.22 53.8829C123.821 53.9757 123.442 54.1526 123.178 54.4152C122.891 54.7416 122.736 55.1458 122.888 55.5726C122.985 55.9669 123.407 56.2019 123.748 56.25L123.533 56.4312C123.171 56.7739 123.121 57.1915 123.222 57.6233C123.331 58.1068 123.717 58.4819 124.184 58.62C124.54 58.7141 124.97 58.7084 125.384 58.6072C125.798 58.5039 126.182 58.3071 126.45 58.0615C126.804 57.7181 126.971 57.2071 126.843 56.7285ZM123.848 55.4855C123.74 55.298 123.738 54.978 123.932 54.7904C124.044 54.6729 124.207 54.5873 124.383 54.5441C124.557 54.4988 124.743 54.4974 124.898 54.5512C125.155 54.6283 125.303 54.9122 125.294 55.1288C125.294 55.298 125.214 55.4317 125.107 55.5351C124.997 55.6321 124.842 55.7043 124.678 55.7411C124.515 55.7871 124.347 55.7928 124.2 55.7595C124.056 55.7163 123.926 55.6363 123.848 55.4855ZM125.75 57.5844C125.633 57.7196 125.428 57.8236 125.205 57.8774C124.982 57.934 124.751 57.9383 124.586 57.8732C124.36 57.7903 124.206 57.6105 124.15 57.4131C124.064 57.1158 124.15 56.8007 124.407 56.621C124.515 56.5445 124.674 56.4702 124.845 56.4242C125.019 56.3859 125.196 56.3774 125.326 56.3951C125.636 56.4327 125.861 56.6719 125.92 56.9763C125.964 57.178 125.911 57.4074 125.75 57.5844Z" fill="#6D6C5D"/>
<path fill-rule="evenodd" clip-rule="evenodd" d="M115.234 58.7171C115.253 58.2761 115.13 57.8768 114.714 57.6015L114.469 57.462C114.798 57.3537 115.166 57.0458 115.194 56.6416C115.265 56.1943 115.038 55.8247 114.698 55.555C114.392 55.3462 113.988 55.2386 113.579 55.2224C113.171 55.1891 112.757 55.2485 112.426 55.4184C112.055 55.6435 111.787 55.984 111.803 56.4356C111.781 56.8398 112.111 57.1909 112.426 57.3389L112.164 57.4465C111.716 57.6694 111.547 58.051 111.513 58.4934C111.473 58.9854 111.729 59.461 112.136 59.7322C112.448 59.9268 112.86 60.0486 113.287 60.0748C113.71 60.0995 114.134 60.028 114.467 59.8744C114.904 59.6486 115.216 59.2147 115.234 58.7171ZM112.745 56.6388C112.697 56.425 112.793 56.122 113.035 55.9989C113.175 55.9189 113.359 55.887 113.538 55.8984C113.718 55.909 113.897 55.9628 114.025 56.0583C114.251 56.2119 114.306 56.5227 114.234 56.7301C114.183 56.8908 114.068 56.9956 113.935 57.0621C113.799 57.1216 113.632 57.1449 113.463 57.1315C113.296 57.123 113.13 57.0812 113.003 57.0055C112.878 56.9212 112.779 56.8051 112.745 56.6388ZM113.938 59.2091C113.788 59.3032 113.561 59.3421 113.33 59.3266C113.099 59.3145 112.878 59.2466 112.742 59.1361C112.551 58.991 112.457 58.7737 112.462 58.5677C112.469 58.2605 112.645 57.983 112.942 57.8889C113.068 57.8485 113.243 57.8252 113.421 57.8337C113.599 57.8464 113.77 57.8903 113.889 57.9469C114.172 58.0758 114.315 58.3716 114.283 58.6782C114.264 58.8841 114.143 59.0859 113.938 59.2091Z" fill="#6D6C5D"/>
<path fill-rule="evenodd" clip-rule="evenodd" d="M135.226 14.3336L130.991 16.162L130.611 15.2772L134.845 13.4495L135.226 14.3336Z" fill="#6D6C5D"/>
<path fill-rule="evenodd" clip-rule="evenodd" d="M119.673 6.87125L118.584 2.1236L119.588 2.22411C119.79 3.39917 119.996 4.7335 120.233 5.72238C120.662 4.80074 121.135 3.53508 121.57 2.42515L122.556 2.52637L120.548 6.95902L119.673 6.87125Z" fill="#6D6C5D"/>
<path fill-rule="evenodd" clip-rule="evenodd" d="M101.809 9.62626L100.779 11.4688L99.9109 10.9825L101.09 8.87026L100.424 8.49438L98.7739 11.4533L102.798 13.705L104.45 10.744L103.784 10.3716L102.599 12.4917L101.475 11.8567L102.509 10.0142L101.809 9.62626Z" fill="#6D6C5D"/>
<path fill-rule="evenodd" clip-rule="evenodd" d="M135.386 16.4699L136.118 16.2809L137.044 19.8903L136.314 20.0793L135.968 18.7443L132.267 19.697L132.026 18.7662L135.728 17.812L135.386 16.4699Z" fill="#6D6C5D"/>
<path fill-rule="evenodd" clip-rule="evenodd" d="M112.656 7.32926C112.141 7.41491 111.614 7.36677 111.189 7.10628C110.822 6.89109 110.692 6.61856 110.624 6.2802L110.094 2.98367L111.035 2.83148L111.566 6.12872C111.618 6.39983 111.856 6.56689 112.107 6.61644C112.245 6.65254 112.4 6.64971 112.549 6.62139" fill="#6D6C5D"/>
<path fill-rule="evenodd" clip-rule="evenodd" d="M112.335 7.05175C112.848 6.97247 113.332 6.76011 113.655 6.37999C113.937 6.06357 113.976 5.76061 113.934 5.418L113.407 2.1236L112.466 2.27154L112.992 5.5709C113.03 5.82007 112.852 6.07632 112.632 6.20232C112.511 6.27876 112.365 6.32548 112.216 6.3453" fill="#6D6C5D"/>
<path fill-rule="evenodd" clip-rule="evenodd" d="M137.524 23.6137L132.734 22.6517L132.865 23.5875L133.907 23.7793L134.136 25.4286L133.187 25.8979L133.318 26.833L137.661 24.5962L137.524 23.6137ZM134.859 25.0669L134.7 23.9287L136.69 24.2281H136.698L136.693 24.2295L136.698 24.2316H136.69L134.859 25.0669Z" fill="#6D6C5D"/>
<path fill-rule="evenodd" clip-rule="evenodd" d="M136.942 31.1362L137.027 31.122L137.133 31.0958L137.208 31.0689C137.514 30.904 137.585 30.4984 137.57 30.1678C137.557 29.8344 137.454 29.4946 137.139 29.3743C136.978 29.329 136.772 29.3148 136.666 29.4819C136.145 30.2535 136.507 31.8894 135.164 32.1746C134.578 32.2716 134.067 32.0175 133.764 31.5489C133.347 30.8042 133.312 29.6426 133.789 28.9241C134.075 28.5468 134.467 28.3175 134.934 28.3146L134.989 29.1966C134.702 29.2356 134.417 29.3835 134.286 29.6645C134.092 30.1275 134.14 30.8637 134.478 31.1348C134.603 31.2735 134.89 31.2579 135.045 31.1751C135.578 30.7915 135.471 29.838 135.735 29.1966C135.827 28.9269 136.076 28.6495 136.331 28.5135C136.803 28.3111 137.409 28.3826 137.789 28.7606C138.401 29.3368 138.432 30.4736 138.146 31.1645C137.987 31.643 137.468 31.992 136.929 32.0267L136.873 31.1376L136.942 31.1362Z" fill="#6D6C5D"/>
<path fill-rule="evenodd" clip-rule="evenodd" d="M100.16 24.1857C100.083 24.6974 99.874 25.1866 99.4933 25.5108C99.1764 25.7918 98.8764 25.8307 98.5333 25.7918L95.2363 25.2744L95.3842 24.3336L98.6797 24.8496C98.9542 24.8822 99.1863 24.7066 99.3108 24.4851C99.3872 24.3633 99.4339 24.2182 99.453 24.0674" fill="#6D6C5D"/>
<path fill-rule="evenodd" clip-rule="evenodd" d="M99.7367 24.4915C99.8209 23.9783 99.7692 23.4502 99.5075 23.024C99.2924 22.6595 99.0179 22.53 98.6804 22.4634L95.3849 21.9438L95.2363 22.8839L98.5318 23.4049C98.7809 23.4481 98.9712 23.6937 99.0214 23.9443C99.0554 24.083 99.0554 24.2373 99.0278 24.3853" fill="#6D6C5D"/>
<path fill-rule="evenodd" clip-rule="evenodd" d="M105.281 4.24719L104.434 4.76181L105.446 9.54344L106.254 9.05218L106.017 8.02011L107.441 7.1551L108.248 7.84102L109.056 7.35118L105.281 4.24719ZM105.841 7.23297L105.331 5.28563L105.325 5.27643L105.328 5.28068V5.27501L105.331 5.28421L106.823 6.63411L105.841 7.23297Z" fill="#6D6C5D"/>
<path fill-rule="evenodd" clip-rule="evenodd" d="M127.474 6.35165L125.529 5.53478L125.914 4.61951L128.147 5.55177L128.443 4.84744L125.315 3.53931L123.536 7.79712L126.663 9.10525L126.957 8.3988L124.718 7.46159L125.22 6.27237L127.17 7.09067L127.474 6.35165Z" fill="#6D6C5D"/>
<path fill-rule="evenodd" clip-rule="evenodd" d="M99.0108 16.0579C99.0073 15.7415 98.991 15.4781 98.7278 15.2254C98.4731 14.9621 98.0713 14.8403 97.6751 14.8694C96.6485 15.0286 96.5113 16.2087 95.9438 18.0739L100.36 19.3912L100.635 18.471L98.8927 17.9507L98.8191 17.9273C98.9387 17.5033 99.1078 16.9632 99.1934 16.8486C99.5124 16.1152 100.681 16.8358 101.145 16.7643L101.416 15.8505C100.625 15.8944 99.5683 15.1879 99.0108 16.0579ZM98.0897 17.7086L96.935 17.366C97.1876 16.5767 97.3001 15.7832 97.8548 15.8335C98.0777 15.8675 98.2312 15.9269 98.3628 16.089C98.5778 16.3587 98.3005 16.9477 98.0897 17.7086Z" fill="#6D6C5D"/>
<path fill-rule="evenodd" clip-rule="evenodd" d="M131.445 7.07867L127.781 9.87545L128.364 10.6392L129.81 9.53567L129.872 9.48896C130.146 9.83652 130.48 10.2903 130.523 10.429C130.929 11.1149 129.66 11.6402 129.446 12.055L130.022 12.8131C130.453 12.147 131.644 11.7095 131.271 10.7426C131.529 10.928 131.755 11.0696 132.111 11.0045C132.471 10.9549 132.809 10.7022 133.017 10.3639C133.491 9.44082 132.618 8.63598 131.445 7.07867ZM132.134 9.94128C131.973 10.102 131.833 10.1904 131.627 10.2018C131.281 10.2173 130.969 9.64469 130.475 9.02884L131.433 8.29762C131.925 8.96372 132.5 9.52152 132.134 9.94128Z" fill="#6D6C5D"/>
<path fill-rule="evenodd" clip-rule="evenodd" d="M100.927 28.2245C100.679 27.6567 100.066 27.4329 99.4373 27.4644C98.9029 27.525 98.498 27.8869 98.2737 28.4377C98.1911 28.1138 97.8931 27.71 97.387 27.6502C96.8557 27.5856 96.3529 27.7278 96.0954 28.1744C95.748 28.6227 95.897 30.5813 95.8597 31.7089L101.104 31.704L101.107 31.3212C101.079 29.2398 101.196 28.9926 100.927 28.2245ZM97.9498 30.608L96.6557 30.6096C96.6946 29.4005 96.4946 28.7584 97.2331 28.676C97.672 28.6445 97.7951 28.7438 97.8931 29.0055C97.9781 29.2777 97.9522 29.5588 97.9498 30.608ZM100.23 30.6048L98.7563 30.608H98.7458C98.7709 29.4376 98.5887 28.7511 99.2883 28.6154C99.5305 28.55 99.8333 28.5734 100.012 28.7584C100.309 29.0443 100.216 29.5224 100.23 30.6048Z" fill="#6D6C5D"/>
</g>
<defs>
<clipPath id="clip0_5513_27759">
<rect width="149" height="63" fill="white"/>
</clipPath>
</defs>
</svg>
